<?xml version="1.0" encoding="UTF-8"?>
        <mxfile host="codeviz.app" modified="2025-09-12T06:27:39.847Z" agent="CodeViz Exporter" version="14.6.5" type="device">
          <diagram id="codeviz-diagram" name="System Diagram">
            <mxGraphModel dx="1000" dy="1000" grid="1" gridSize="10" guides="1" tooltips="1" connect="1" arrows="1" fold="1" page="1" pageScale="1" pageWidth="1169" pageHeight="827" math="0" shadow="0">
              <root>
                <mxCell id="0"/>
                <mxCell id="1" parent="0"/>
                <mxCell id="cli_app_boundary" value="" style="html=1;whiteSpace=wrap;container=1;fillColor=#dae8fc;strokeColor=#6c8ebf;dashed=1;fillOpacity=20;strokeWidth=2;containerType=none;recursiveResize=0;movable=1;resizable=1;autosize=0;dropTarget=0" vertex="1" parent="can_retransmission_tool_boundary">
                  <mxGeometry x="202" y="-34" width="201" height="269" as="geometry"/>
                </mxCell>
                <mxCell id="cli_app_boundary_label" value="CLI Application" style="edgeLabel;html=1;align=center;verticalAlign=middle;resizable=0;labelBackgroundColor=white;spacing=5" vertex="1" parent="can_retransmission_tool_boundary">
                  <mxGeometry x="210" y="-26" width="125" height="24" as="geometry"/>
                </mxCell>
<mxCell id="gui_app_boundary" value="" style="html=1;whiteSpace=wrap;container=1;fillColor=#dae8fc;strokeColor=#6c8ebf;dashed=1;fillOpacity=20;strokeWidth=2;containerType=none;recursiveResize=0;movable=1;resizable=1;autosize=0;dropTarget=0" vertex="1" parent="can_retransmission_tool_boundary">
                  <mxGeometry x="40" y="-34" width="204" height="269" as="geometry"/>
                </mxCell>
                <mxCell id="gui_app_boundary_label" value="GUI Application" style="edgeLabel;html=1;align=center;verticalAlign=middle;resizable=0;labelBackgroundColor=white;spacing=5" vertex="1" parent="can_retransmission_tool_boundary">
                  <mxGeometry x="48" y="-26" width="128" height="24" as="geometry"/>
                </mxCell>
<mxCell id="can_logic_module_boundary" value="" style="html=1;whiteSpace=wrap;container=1;fillColor=#dae8fc;strokeColor=#6c8ebf;dashed=1;fillOpacity=20;strokeWidth=2;containerType=none;recursiveResize=0;movable=1;resizable=1;autosize=0;dropTarget=0" vertex="1" parent="can_retransmission_tool_boundary">
                  <mxGeometry x="59.599999999999994" y="235" width="325" height="441" as="geometry"/>
                </mxCell>
                <mxCell id="can_logic_module_boundary_label" value="CAN Logic Module" style="edgeLabel;html=1;align=center;verticalAlign=middle;resizable=0;labelBackgroundColor=white;spacing=5" vertex="1" parent="can_retransmission_tool_boundary">
                  <mxGeometry x="67.6" y="243" width="249" height="24" as="geometry"/>
                </mxCell>
<mxCell id="can_retransmission_tool_boundary" value="" style="html=1;whiteSpace=wrap;container=1;fillColor=#dae8fc;strokeColor=#6c8ebf;dashed=1;fillOpacity=20;strokeWidth=2;containerType=none;recursiveResize=0;movable=1;resizable=1;autosize=0;dropTarget=0" vertex="1" parent="base-diagram-group">
                  <mxGeometry x="40" y="106" width="401" height="807" as="geometry"/>
                </mxCell>
                <mxCell id="can_retransmission_tool_boundary_label" value="CAN Frame Retransmission Tool" style="edgeLabel;html=1;align=center;verticalAlign=middle;resizable=0;labelBackgroundColor=white;spacing=5" vertex="1" parent="base-diagram-group">
                  <mxGeometry x="48" y="114" width="325" height="24" as="geometry"/>
                </mxCell>
<mxCell id="base-diagram-group" value="" style="html=1;whiteSpace=wrap;container=1;fillColor=#dae8fc;strokeColor=#6c8ebf;dashed=1;fillOpacity=20;strokeWidth=2;containerType=none;recursiveResize=0;movable=1;resizable=1;autosize=0;dropTarget=0" vertex="1" parent="1">
                  <mxGeometry x="20" y="0" width="441" height="1019" as="geometry"/>
                </mxCell>
                <mxCell id="base-diagram-group_label" value="Base Diagram" style="edgeLabel;html=1;align=center;verticalAlign=middle;resizable=0;labelBackgroundColor=white;spacing=5" vertex="1" parent="1">
                  <mxGeometry x="28" y="8" width="365" height="24" as="geometry"/>
                </mxCell>
                <mxCell id="user" value="User" style="rounded=1;whiteSpace=wrap;html=1;fillColor=#f5f5f5" vertex="1" parent="base-diagram-group">
                      <mxGeometry x="165.5" y="60" width="42" height="41" as="geometry"/>
                    </mxCell>
<mxCell id="can_bus" value="CAN Bus/Device" style="rounded=1;whiteSpace=wrap;html=1;fillColor=#f5f5f5" vertex="1" parent="base-diagram-group">
                      <mxGeometry x="249.5" y="938" width="109" height="41" as="geometry"/>
                    </mxCell>
<mxCell id="cli_parser" value="CLI Parser" style="rounded=1;whiteSpace=wrap;html=1;fillColor=#f5f5f5" vertex="1" parent="cli_app_boundary">
                      <mxGeometry x="27" y="107" width="72" height="41" as="geometry"/>
                    </mxCell>
<mxCell id="cli_executor" value="CLI Executor" style="rounded=1;whiteSpace=wrap;html=1;fillColor=#f5f5f5" vertex="1" parent="cli_app_boundary">
                      <mxGeometry x="20" y="188" width="86" height="41" as="geometry"/>
                    </mxCell>
<mxCell id="gui_window" value="GUI Window" style="rounded=1;whiteSpace=wrap;html=1;fillColor=#f5f5f5" vertex="1" parent="gui_app_boundary">
                      <mxGeometry x="24" y="107" width="88" height="41" as="geometry"/>
                    </mxCell>
<mxCell id="event_handler" value="Event Handler" style="rounded=1;whiteSpace=wrap;html=1;fillColor=#f5f5f5" vertex="1" parent="gui_app_boundary">
                      <mxGeometry x="20" y="188" width="96" height="41" as="geometry"/>
                    </mxCell>
<mxCell id="can_interface" value="CAN Interface" style="rounded=1;whiteSpace=wrap;html=1;fillColor=#f5f5f5" vertex="1" parent="can_logic_module_boundary">
                      <mxGeometry x="80.9" y="107" width="96" height="41" as="geometry"/>
                    </mxCell>
<mxCell id="frame_processor" value="Frame Processor" style="rounded=1;whiteSpace=wrap;html=1;fillColor=#f5f5f5" vertex="1" parent="can_logic_module_boundary">
                      <mxGeometry x="73.9" y="188" width="110" height="41" as="geometry"/>
                    </mxCell>
<mxCell id="retransmission_logic" value="Retransmission Logic" style="rounded=1;whiteSpace=wrap;html=1;fillColor=#f5f5f5" vertex="1" parent="can_logic_module_boundary">
                      <mxGeometry x="20" y="279" width="136" height="41" as="geometry"/>
                    </mxCell>
<mxCell id="config_manager" value="Configuration Manager" style="rounded=1;whiteSpace=wrap;html=1;fillColor=#f5f5f5" vertex="1" parent="can_logic_module_boundary">
                      <mxGeometry x="61.2" y="360" width="150" height="41" as="geometry"/>
                    </mxCell>
                <mxCell id="edge-e-cli_parser-cli_executor" style="edgeStyle=orthogonalEdgeStyle;rounded=1;orthogonalLoop=1;jettySize=auto;html=1;strokeColor=#808080;strokeWidth=2;jumpStyle=arc;jumpSize=10;spacing=15;labelBackgroundColor=white;labelBorderColor=none" edge="1" parent="1" source="cli_parser" target="cli_executor">
                    <mxGeometry relative="1" as="geometry"/>
                  </mxCell>
                  <mxCell id="edge-e-cli_parser-cli_executor_label" value="Passes parsed arguments to" style="edgeLabel;html=1;align=center;verticalAlign=middle;resizable=0;points=[];" vertex="1" connectable="0" parent="edge-e-cli_parser-cli_executor">
                    <mxGeometry x="-0.2" y="10" relative="1" as="geometry">
                      <mxPoint as="offset"/>
                    </mxGeometry>
                  </mxCell>
<mxCell id="edge-e-gui_window-event_handler" style="edgeStyle=orthogonalEdgeStyle;rounded=1;orthogonalLoop=1;jettySize=auto;html=1;strokeColor=#808080;strokeWidth=2;jumpStyle=arc;jumpSize=10;spacing=15;labelBackgroundColor=white;labelBorderColor=none" edge="1" parent="1" source="gui_window" target="event_handler">
                    <mxGeometry relative="1" as="geometry"/>
                  </mxCell>
                  <mxCell id="edge-e-gui_window-event_handler_label" value="Triggers events for" style="edgeLabel;html=1;align=center;verticalAlign=middle;resizable=0;points=[];" vertex="1" connectable="0" parent="edge-e-gui_window-event_handler">
                    <mxGeometry x="-0.2" y="10" relative="1" as="geometry">
                      <mxPoint as="offset"/>
                    </mxGeometry>
                  </mxCell>
<mxCell id="edge-e-can_interface-frame_processor" style="edgeStyle=orthogonalEdgeStyle;rounded=1;orthogonalLoop=1;jettySize=auto;html=1;strokeColor=#808080;strokeWidth=2;jumpStyle=arc;jumpSize=10;spacing=15;labelBackgroundColor=white;labelBorderColor=none" edge="1" parent="1" source="can_interface" target="frame_processor">
                    <mxGeometry relative="1" as="geometry"/>
                  </mxCell>
                  <mxCell id="edge-e-can_interface-frame_processor_label" value="Sends/Receives frames to/from" style="edgeLabel;html=1;align=center;verticalAlign=middle;resizable=0;points=[];" vertex="1" connectable="0" parent="edge-e-can_interface-frame_processor">
                    <mxGeometry x="-0.2" y="10" relative="1" as="geometry">
                      <mxPoint as="offset"/>
                    </mxGeometry>
                  </mxCell>
<mxCell id="edge-e-frame_processor-retransmission_logic" style="edgeStyle=orthogonalEdgeStyle;rounded=1;orthogonalLoop=1;jettySize=auto;html=1;strokeColor=#808080;strokeWidth=2;jumpStyle=arc;jumpSize=10;spacing=15;labelBackgroundColor=white;labelBorderColor=none" edge="1" parent="1" source="frame_processor" target="retransmission_logic">
                    <mxGeometry relative="1" as="geometry"/>
                  </mxCell>
                  <mxCell id="edge-e-frame_processor-retransmission_logic_label" value="Provides frames for" style="edgeLabel;html=1;align=center;verticalAlign=middle;resizable=0;points=[];" vertex="1" connectable="0" parent="edge-e-frame_processor-retransmission_logic">
                    <mxGeometry x="-0.2" y="10" relative="1" as="geometry">
                      <mxPoint as="offset"/>
                    </mxGeometry>
                  </mxCell>
<mxCell id="edge-e-retransmission_logic-can_interface" style="edgeStyle=orthogonalEdgeStyle;rounded=1;orthogonalLoop=1;jettySize=auto;html=1;strokeColor=#808080;strokeWidth=2;jumpStyle=arc;jumpSize=10;spacing=15;labelBackgroundColor=white;labelBorderColor=none" edge="1" parent="1" source="retransmission_logic" target="can_interface">
                    <mxGeometry relative="1" as="geometry"/>
                  </mxCell>
                  <mxCell id="edge-e-retransmission_logic-can_interface_label" value="Sends retransmitted frames via" style="edgeLabel;html=1;align=center;verticalAlign=middle;resizable=0;points=[];" vertex="1" connectable="0" parent="edge-e-retransmission_logic-can_interface">
                    <mxGeometry x="-0.2" y="10" relative="1" as="geometry">
                      <mxPoint as="offset"/>
                    </mxGeometry>
                  </mxCell>
<mxCell id="edge-e-frame_processor-config_manager" style="edgeStyle=orthogonalEdgeStyle;rounded=1;orthogonalLoop=1;jettySize=auto;html=1;strokeColor=#808080;strokeWidth=2;jumpStyle=arc;jumpSize=10;spacing=15;labelBackgroundColor=white;labelBorderColor=none" edge="1" parent="1" source="frame_processor" target="config_manager">
                    <mxGeometry relative="1" as="geometry"/>
                  </mxCell>
                  <mxCell id="edge-e-frame_processor-config_manager_label" value="Uses | Configuration" style="edgeLabel;html=1;align=center;verticalAlign=middle;resizable=0;points=[];" vertex="1" connectable="0" parent="edge-e-frame_processor-config_manager">
                    <mxGeometry x="-0.2" y="10" relative="1" as="geometry">
                      <mxPoint as="offset"/>
                    </mxGeometry>
                  </mxCell>
<mxCell id="edge-e-retransmission_logic-config_manager" style="edgeStyle=orthogonalEdgeStyle;rounded=1;orthogonalLoop=1;jettySize=auto;html=1;strokeColor=#808080;strokeWidth=2;jumpStyle=arc;jumpSize=10;spacing=15;labelBackgroundColor=white;labelBorderColor=none" edge="1" parent="1" source="retransmission_logic" target="config_manager">
                    <mxGeometry relative="1" as="geometry"/>
                  </mxCell>
                  <mxCell id="edge-e-retransmission_logic-config_manager_label" value="Uses | Configuration" style="edgeLabel;html=1;align=center;verticalAlign=middle;resizable=0;points=[];" vertex="1" connectable="0" parent="edge-e-retransmission_logic-config_manager">
                    <mxGeometry x="-0.2" y="10" relative="1" as="geometry">
                      <mxPoint as="offset"/>
                    </mxGeometry>
                  </mxCell>
<mxCell id="edge-e-user-cli_parser" style="edgeStyle=orthogonalEdgeStyle;rounded=1;orthogonalLoop=1;jettySize=auto;html=1;strokeColor=#808080;strokeWidth=2;jumpStyle=arc;jumpSize=10;spacing=15;labelBackgroundColor=white;labelBorderColor=none" edge="1" parent="1" source="user" target="cli_parser">
                    <mxGeometry relative="1" as="geometry"/>
                  </mxCell>
                  <mxCell id="edge-e-user-cli_parser_label" value="Uses | CLI" style="edgeLabel;html=1;align=center;verticalAlign=middle;resizable=0;points=[];" vertex="1" connectable="0" parent="edge-e-user-cli_parser">
                    <mxGeometry x="-0.2" y="10" relative="1" as="geometry">
                      <mxPoint as="offset"/>
                    </mxGeometry>
                  </mxCell>
<mxCell id="edge-e-user-gui_window" style="edgeStyle=orthogonalEdgeStyle;rounded=1;orthogonalLoop=1;jettySize=auto;html=1;strokeColor=#808080;strokeWidth=2;jumpStyle=arc;jumpSize=10;spacing=15;labelBackgroundColor=white;labelBorderColor=none" edge="1" parent="1" source="user" target="gui_window">
                    <mxGeometry relative="1" as="geometry"/>
                  </mxCell>
                  <mxCell id="edge-e-user-gui_window_label" value="Uses | GUI" style="edgeLabel;html=1;align=center;verticalAlign=middle;resizable=0;points=[];" vertex="1" connectable="0" parent="edge-e-user-gui_window">
                    <mxGeometry x="-0.2" y="10" relative="1" as="geometry">
                      <mxPoint as="offset"/>
                    </mxGeometry>
                  </mxCell>
<mxCell id="edge-e-cli_executor-can_interface" style="edgeStyle=orthogonalEdgeStyle;rounded=1;orthogonalLoop=1;jettySize=auto;html=1;strokeColor=#808080;strokeWidth=2;jumpStyle=arc;jumpSize=10;spacing=15;labelBackgroundColor=white;labelBorderColor=none" edge="1" parent="1" source="cli_executor" target="can_interface">
                    <mxGeometry relative="1" as="geometry"/>
                  </mxCell>
                  <mxCell id="edge-e-cli_executor-can_interface_label" value="Uses | CAN Communication" style="edgeLabel;html=1;align=center;verticalAlign=middle;resizable=0;points=[];" vertex="1" connectable="0" parent="edge-e-cli_executor-can_interface">
                    <mxGeometry x="-0.2" y="10" relative="1" as="geometry">
                      <mxPoint as="offset"/>
                    </mxGeometry>
                  </mxCell>
<mxCell id="edge-e-cli_executor-frame_processor" style="edgeStyle=orthogonalEdgeStyle;rounded=1;orthogonalLoop=1;jettySize=auto;html=1;strokeColor=#808080;strokeWidth=2;jumpStyle=arc;jumpSize=10;spacing=15;labelBackgroundColor=white;labelBorderColor=none" edge="1" parent="1" source="cli_executor" target="frame_processor">
                    <mxGeometry relative="1" as="geometry"/>
                  </mxCell>
                  <mxCell id="edge-e-cli_executor-frame_processor_label" value="Uses | Frame Processing" style="edgeLabel;html=1;align=center;verticalAlign=middle;resizable=0;points=[];" vertex="1" connectable="0" parent="edge-e-cli_executor-frame_processor">
                    <mxGeometry x="-0.2" y="10" relative="1" as="geometry">
                      <mxPoint as="offset"/>
                    </mxGeometry>
                  </mxCell>
<mxCell id="edge-e-cli_executor-retransmission_logic" style="edgeStyle=orthogonalEdgeStyle;rounded=1;orthogonalLoop=1;jettySize=auto;html=1;strokeColor=#808080;strokeWidth=2;jumpStyle=arc;jumpSize=10;spacing=15;labelBackgroundColor=white;labelBorderColor=none" edge="1" parent="1" source="cli_executor" target="retransmission_logic">
                    <mxGeometry relative="1" as="geometry"/>
                  </mxCell>
                  <mxCell id="edge-e-cli_executor-retransmission_logic_label" value="Uses | Retransmission Logic" style="edgeLabel;html=1;align=center;verticalAlign=middle;resizable=0;points=[];" vertex="1" connectable="0" parent="edge-e-cli_executor-retransmission_logic">
                    <mxGeometry x="-0.2" y="10" relative="1" as="geometry">
                      <mxPoint as="offset"/>
                    </mxGeometry>
                  </mxCell>
<mxCell id="edge-e-event_handler-can_interface" style="edgeStyle=orthogonalEdgeStyle;rounded=1;orthogonalLoop=1;jettySize=auto;html=1;strokeColor=#808080;strokeWidth=2;jumpStyle=arc;jumpSize=10;spacing=15;labelBackgroundColor=white;labelBorderColor=none" edge="1" parent="1" source="event_handler" target="can_interface">
                    <mxGeometry relative="1" as="geometry"/>
                  </mxCell>
                  <mxCell id="edge-e-event_handler-can_interface_label" value="Uses | CAN Communication" style="edgeLabel;html=1;align=center;verticalAlign=middle;resizable=0;points=[];" vertex="1" connectable="0" parent="edge-e-event_handler-can_interface">
                    <mxGeometry x="-0.2" y="10" relative="1" as="geometry">
                      <mxPoint as="offset"/>
                    </mxGeometry>
                  </mxCell>
<mxCell id="edge-e-event_handler-frame_processor" style="edgeStyle=orthogonalEdgeStyle;rounded=1;orthogonalLoop=1;jettySize=auto;html=1;strokeColor=#808080;strokeWidth=2;jumpStyle=arc;jumpSize=10;spacing=15;labelBackgroundColor=white;labelBorderColor=none" edge="1" parent="1" source="event_handler" target="frame_processor">
                    <mxGeometry relative="1" as="geometry"/>
                  </mxCell>
                  <mxCell id="edge-e-event_handler-frame_processor_label" value="Uses | Frame Processing" style="edgeLabel;html=1;align=center;verticalAlign=middle;resizable=0;points=[];" vertex="1" connectable="0" parent="edge-e-event_handler-frame_processor">
                    <mxGeometry x="-0.2" y="10" relative="1" as="geometry">
                      <mxPoint as="offset"/>
                    </mxGeometry>
                  </mxCell>
<mxCell id="edge-e-event_handler-retransmission_logic" style="edgeStyle=orthogonalEdgeStyle;rounded=1;orthogonalLoop=1;jettySize=auto;html=1;strokeColor=#808080;strokeWidth=2;jumpStyle=arc;jumpSize=10;spacing=15;labelBackgroundColor=white;labelBorderColor=none" edge="1" parent="1" source="event_handler" target="retransmission_logic">
                    <mxGeometry relative="1" as="geometry"/>
                  </mxCell>
                  <mxCell id="edge-e-event_handler-retransmission_logic_label" value="Uses | Retransmission Logic" style="edgeLabel;html=1;align=center;verticalAlign=middle;resizable=0;points=[];" vertex="1" connectable="0" parent="edge-e-event_handler-retransmission_logic">
                    <mxGeometry x="-0.2" y="10" relative="1" as="geometry">
                      <mxPoint as="offset"/>
                    </mxGeometry>
                  </mxCell>
<mxCell id="edge-e-can_interface-can_bus" style="edgeStyle=orthogonalEdgeStyle;rounded=1;orthogonalLoop=1;jettySize=auto;html=1;strokeColor=#808080;strokeWidth=2;jumpStyle=arc;jumpSize=10;spacing=15;labelBackgroundColor=white;labelBorderColor=none" edge="1" parent="1" source="can_interface" target="can_bus">
                    <mxGeometry relative="1" as="geometry"/>
                  </mxCell>
                  <mxCell id="edge-e-can_interface-can_bus_label" value="Sends and Receives | CAN Frames" style="edgeLabel;html=1;align=center;verticalAlign=middle;resizable=0;points=[];" vertex="1" connectable="0" parent="edge-e-can_interface-can_bus">
                    <mxGeometry x="-0.2" y="10" relative="1" as="geometry">
                      <mxPoint as="offset"/>
                    </mxGeometry>
                  </mxCell>
              </root>
            </mxGraphModel>
          </diagram>
        </mxfile>